 <svg
      xmlns="http://www.w3.org/2000/svg"
      width="40"
      height="40"
      viewBox="0 0 40 40"
      fill="green"
    >
      <path
        d="M6.66699 7.49996L11.066 3.09996H29.9337C30.695 3.09996 31.408 3.49062 31.86 4.09996L38.26 11.4666C38.716 12.071 38.9853 12.8292 38.9997 13.6166V27.5666C38.9853 28.354 38.716 29.1122 38.26 29.7166L31.86 37.0833C31.408 37.6927 30.695 38.0833 29.9337 38.0833H11.066C10.3047 38.0833 9.59166 37.6927 9.138 37.0833L2.738 29.7166C2.282 29.1122 2.01268 28.354 1.99834 27.5666V13.6166C2.01268 12.8292 2.282 12.071 2.738 11.4666L9.138 4.09996C9.59166 3.49062 10.3047 3.09996 11.066 3.09996H11.3337H29.9337H30.2014H38.666C39.0853 3.09996 39.3337 3.34829 39.3337 3.76663V12.4833V27.5666V36.2833C39.3337 36.7016 39.0853 36.9499 38.666 36.9499H38.2607H30.2014H11.3337H6.66699H2.00033C1.582 36.9499 1.33366 36.7016 1.33366 36.2833V12.4833V3.76663C1.33366 3.34829 1.582 3.09996 2.00033 3.09996H6.66699ZM21.9997 14.9166C23.721 14.9166 25.1137 16.3093 25.1137 18.0333C25.1137 19.7573 23.721 21.15 21.9997 21.15C20.2783 21.15 18.8857 19.7573 18.8857 18.0333C18.8857 16.3093 20.2783 14.9166 21.9997 14.9166Z"
        fill="#3F91B5"
      />
    </svg>